<svg width="841" height="819" viewBox="0 0 841 819" fill="none" xmlns="http://www.w3.org/2000/svg">
<g id="clockContainer">
<circle id="clock" cx="421" cy="398" r="250" fill="#292F34"/>
<g id="numbers">
<path id="12" d="M407.777 214C407.411 214 407.099 213.89 406.842 213.67C406.622 213.413 406.512 213.102 406.512 212.735V181.935L397.382 188.975C397.126 189.195 396.851 189.305 396.557 189.305C396.227 189.305 395.916 189.122 395.622 188.755L394.192 186.94C394.009 186.683 393.917 186.427 393.917 186.17C393.917 185.73 394.101 185.382 394.467 185.125L406.457 175.885C406.861 175.628 407.337 175.5 407.887 175.5H410.692C411.059 175.5 411.352 175.628 411.572 175.885C411.829 176.105 411.957 176.398 411.957 176.765V212.735C411.957 213.102 411.829 213.413 411.572 213.67C411.352 213.89 411.059 214 410.692 214H407.777ZM420.083 214C419.716 214 419.404 213.89 419.148 213.67C418.928 213.413 418.818 213.102 418.818 212.735V210.975C418.818 210.132 419.276 209.325 420.193 208.555L431.853 196.895C434.676 194.548 436.619 192.642 437.683 191.175C438.746 189.672 439.278 188.095 439.278 186.445C439.278 184.318 438.673 182.65 437.463 181.44C436.289 180.23 434.566 179.625 432.293 179.625C430.166 179.625 428.461 180.267 427.178 181.55C425.894 182.797 425.106 184.465 424.813 186.555C424.739 186.995 424.556 187.325 424.263 187.545C424.006 187.728 423.713 187.82 423.383 187.82H420.523C420.193 187.82 419.918 187.728 419.698 187.545C419.478 187.325 419.368 187.068 419.368 186.775C419.441 184.795 419.973 182.907 420.963 181.11C421.953 179.277 423.401 177.792 425.308 176.655C427.251 175.482 429.579 174.895 432.293 174.895C436.436 174.895 439.553 175.977 441.643 178.14C443.769 180.267 444.833 182.98 444.833 186.28C444.833 188.59 444.246 190.68 443.073 192.55C441.936 194.383 440.158 196.363 437.738 198.49L427.178 209.215H444.338C444.741 209.215 445.053 209.343 445.273 209.6C445.529 209.82 445.658 210.113 445.658 210.48V212.735C445.658 213.102 445.529 213.413 445.273 213.67C445.016 213.89 444.704 214 444.338 214H420.083Z" fill="#1ABC9C"/>
<path id="1" d="M527.675 232C527.441 232 527.243 231.93 527.08 231.79C526.94 231.627 526.87 231.428 526.87 231.195V211.595L521.06 216.075C520.896 216.215 520.721 216.285 520.535 216.285C520.325 216.285 520.126 216.168 519.94 215.935L519.03 214.78C518.913 214.617 518.855 214.453 518.855 214.29C518.855 214.01 518.971 213.788 519.205 213.625L526.835 207.745C527.091 207.582 527.395 207.5 527.745 207.5H529.53C529.763 207.5 529.95 207.582 530.09 207.745C530.253 207.885 530.335 208.072 530.335 208.305V231.195C530.335 231.428 530.253 231.627 530.09 231.79C529.95 231.93 529.763 232 529.53 232H527.675Z" fill="#DB7F20"/>
<path id="2" d="M589.749 310C589.516 310 589.317 309.93 589.154 309.79C589.014 309.627 588.944 309.428 588.944 309.195V308.075C588.944 307.538 589.236 307.025 589.819 306.535L597.239 299.115C599.036 297.622 600.272 296.408 600.949 295.475C601.626 294.518 601.964 293.515 601.964 292.465C601.964 291.112 601.579 290.05 600.809 289.28C600.062 288.51 598.966 288.125 597.519 288.125C596.166 288.125 595.081 288.533 594.264 289.35C593.447 290.143 592.946 291.205 592.759 292.535C592.712 292.815 592.596 293.025 592.409 293.165C592.246 293.282 592.059 293.34 591.849 293.34H590.029C589.819 293.34 589.644 293.282 589.504 293.165C589.364 293.025 589.294 292.862 589.294 292.675C589.341 291.415 589.679 290.213 590.309 289.07C590.939 287.903 591.861 286.958 593.074 286.235C594.311 285.488 595.792 285.115 597.519 285.115C600.156 285.115 602.139 285.803 603.469 287.18C604.822 288.533 605.499 290.26 605.499 292.36C605.499 293.83 605.126 295.16 604.379 296.35C603.656 297.517 602.524 298.777 600.984 300.13L594.264 306.955H605.184C605.441 306.955 605.639 307.037 605.779 307.2C605.942 307.34 606.024 307.527 606.024 307.76V309.195C606.024 309.428 605.942 309.627 605.779 309.79C605.616 309.93 605.417 310 605.184 310H589.749Z" fill="#DB7F20"/>
<path id="3" d="M630.408 413.4C628.302 413.4 626.475 413.067 624.928 412.4C623.408 411.707 622.248 410.813 621.448 409.72C620.675 408.627 620.262 407.48 620.208 406.28C620.208 406.04 620.288 405.853 620.448 405.72C620.608 405.56 620.808 405.48 621.048 405.48H623.008C623.568 405.48 623.942 405.773 624.128 406.36C624.475 407.693 625.222 408.64 626.368 409.2C627.515 409.733 628.862 410 630.408 410C632.302 410 633.808 409.56 634.928 408.68C636.048 407.773 636.608 406.48 636.608 404.8C636.608 401.573 634.648 399.96 630.728 399.96H626.928C626.662 399.96 626.435 399.88 626.248 399.72C626.088 399.533 626.008 399.307 626.008 399.04V397.96C626.008 397.587 626.155 397.227 626.448 396.88L634.208 388.4H622.408C622.142 388.4 621.915 388.32 621.728 388.16C621.568 387.973 621.488 387.747 621.488 387.48V385.96C621.488 385.693 621.568 385.467 621.728 385.28C621.915 385.093 622.142 385 622.408 385H638.368C638.662 385 638.888 385.093 639.048 385.28C639.235 385.44 639.328 385.667 639.328 385.96V387.4C639.328 387.72 639.182 388.027 638.888 388.32L631.168 396.92L631.808 396.96C634.528 397.04 636.675 397.747 638.248 399.08C639.822 400.413 640.608 402.36 640.608 404.92C640.608 406.653 640.168 408.16 639.288 409.44C638.408 410.72 637.195 411.707 635.648 412.4C634.102 413.067 632.355 413.4 630.408 413.4Z" fill="#1ABC9C"/>
<path id="4" d="M600.666 514C600.433 514 600.234 513.93 600.071 513.79C599.931 513.627 599.861 513.428 599.861 513.195V508.155H588.521C588.288 508.155 588.089 508.085 587.926 507.945C587.786 507.782 587.716 507.583 587.716 507.35V505.95C587.716 505.6 587.844 505.25 588.101 504.9L598.601 490.095C598.718 489.908 598.893 489.768 599.126 489.675C599.359 489.558 599.616 489.5 599.896 489.5H602.416C602.649 489.5 602.836 489.582 602.976 489.745C603.139 489.885 603.221 490.072 603.221 490.305V505.11H606.371C606.604 505.11 606.803 505.192 606.966 505.355C607.129 505.495 607.211 505.682 607.211 505.915V507.35C607.211 507.583 607.129 507.782 606.966 507.945C606.826 508.085 606.639 508.155 606.406 508.155H603.221V513.195C603.221 513.428 603.139 513.627 602.976 513.79C602.836 513.93 602.649 514 602.416 514H600.666ZM599.896 505.18V493.175L591.461 505.18H599.896Z" fill="#DB7F20"/>
<path id="5" d="M524.329 581.35C522.556 581.35 521.028 581.035 519.744 580.405C518.461 579.775 517.469 578.947 516.769 577.92C516.093 576.893 515.731 575.797 515.684 574.63V574.56C515.684 574.373 515.754 574.222 515.894 574.105C516.034 573.988 516.198 573.93 516.384 573.93H518.274C518.764 573.93 519.079 574.187 519.219 574.7C519.546 575.937 520.176 576.858 521.109 577.465C522.043 578.072 523.116 578.375 524.329 578.375C525.893 578.375 527.188 577.908 528.214 576.975C529.264 576.018 529.789 574.7 529.789 573.02C529.789 571.503 529.264 570.278 528.214 569.345C527.188 568.412 525.893 567.945 524.329 567.945C523.489 567.945 522.813 568.062 522.299 568.295C521.786 568.505 521.273 568.808 520.759 569.205C520.479 569.415 520.234 569.578 520.024 569.695C519.838 569.788 519.628 569.835 519.394 569.835H517.574C517.364 569.835 517.178 569.765 517.014 569.625C516.851 569.462 516.781 569.275 516.804 569.065L517.924 557.375C517.948 557.095 518.029 556.885 518.169 556.745C518.333 556.582 518.543 556.5 518.799 556.5H531.014C531.248 556.5 531.434 556.582 531.574 556.745C531.738 556.885 531.819 557.072 531.819 557.305V558.67C531.819 558.903 531.738 559.102 531.574 559.265C531.434 559.405 531.248 559.475 531.014 559.475H520.934L520.269 566.37C521.529 565.577 523.046 565.18 524.819 565.18C526.359 565.18 527.771 565.495 529.054 566.125C530.361 566.755 531.388 567.665 532.134 568.855C532.904 570.045 533.289 571.445 533.289 573.055C533.289 574.782 532.904 576.275 532.134 577.535C531.388 578.772 530.338 579.717 528.984 580.37C527.631 581.023 526.079 581.35 524.329 581.35Z" fill="#DB7F20"/>
<path id="6" d="M420.769 618.4C418.636 618.4 416.783 617.973 415.209 617.12C413.636 616.24 412.436 615.067 411.609 613.6C410.783 612.133 410.369 610.533 410.369 608.8C410.369 607.387 410.649 606.053 411.209 604.8C411.796 603.52 412.449 602.387 413.169 601.4L420.769 590.8C420.796 590.773 420.876 590.68 421.009 590.52C421.116 590.36 421.263 590.24 421.449 590.16C421.636 590.053 421.849 590 422.089 590H424.209C424.449 590 424.636 590.093 424.769 590.28C424.929 590.44 425.009 590.64 425.009 590.88C425.009 591.067 424.956 591.24 424.849 591.4L419.009 599.56C419.596 599.373 420.356 599.28 421.289 599.28C423.209 599.307 424.903 599.747 426.369 600.6C427.863 601.453 429.009 602.6 429.809 604.04C430.636 605.48 431.049 607.053 431.049 608.76C431.049 610.467 430.636 612.067 429.809 613.56C429.009 615.027 427.823 616.2 426.249 617.08C424.703 617.96 422.876 618.4 420.769 618.4ZM420.729 615C421.876 615 422.929 614.76 423.889 614.28C424.876 613.8 425.649 613.093 426.209 612.16C426.796 611.2 427.089 610.067 427.089 608.76C427.089 607.48 426.796 606.373 426.209 605.44C425.649 604.507 424.876 603.8 423.889 603.32C422.929 602.84 421.876 602.6 420.729 602.6C419.609 602.6 418.556 602.84 417.569 603.32C416.609 603.8 415.836 604.507 415.249 605.44C414.663 606.373 414.369 607.48 414.369 608.76C414.369 610.067 414.663 611.2 415.249 612.16C415.836 613.093 416.609 613.8 417.569 614.28C418.529 614.76 419.583 615 420.729 615Z" fill="#1ABC9C"/>
<path id="7" d="M311.743 581C311.533 581 311.358 580.93 311.218 580.79C311.101 580.627 311.043 580.44 311.043 580.23L311.113 579.915L319.828 559.545H308.348C308.114 559.545 307.916 559.475 307.753 559.335C307.613 559.172 307.543 558.973 307.543 558.74V557.34C307.543 557.083 307.613 556.885 307.753 556.745C307.916 556.582 308.114 556.5 308.348 556.5H322.698C322.954 556.5 323.153 556.582 323.293 556.745C323.456 556.885 323.538 557.083 323.538 557.34V558.635C323.538 559.055 323.444 559.51 323.258 560L314.648 580.125C314.531 580.382 314.391 580.592 314.228 580.755C314.088 580.918 313.889 581 313.633 581H311.743Z" fill="#DB7F20"/>
<path id="8" d="M242.505 514.35C240.685 514.35 239.086 514.058 237.71 513.475C236.333 512.868 235.26 512.005 234.49 510.885C233.72 509.765 233.335 508.458 233.335 506.965C233.335 505.588 233.673 504.387 234.35 503.36C235.026 502.31 235.948 501.505 237.115 500.945C236.181 500.408 235.458 499.708 234.945 498.845C234.455 497.958 234.21 496.932 234.21 495.765C234.21 493.712 234.956 492.102 236.45 490.935C237.966 489.745 239.985 489.15 242.505 489.15C245.001 489.15 246.996 489.745 248.49 490.935C250.006 492.102 250.765 493.7 250.765 495.73C250.765 496.897 250.508 497.923 249.995 498.81C249.505 499.673 248.805 500.385 247.895 500.945C249.061 501.505 249.983 502.31 250.66 503.36C251.336 504.387 251.675 505.588 251.675 506.965C251.675 508.458 251.29 509.765 250.52 510.885C249.75 512.005 248.665 512.868 247.265 513.475C245.888 514.058 244.301 514.35 242.505 514.35ZM242.505 499.685C243.905 499.662 245.083 499.3 246.04 498.6C246.996 497.9 247.475 496.978 247.475 495.835C247.475 494.668 246.996 493.735 246.04 493.035C245.106 492.312 243.928 491.95 242.505 491.95C241.058 491.95 239.856 492.3 238.9 493C237.966 493.7 237.5 494.645 237.5 495.835C237.5 497.002 237.966 497.935 238.9 498.635C239.856 499.335 241.058 499.685 242.505 499.685ZM242.505 511.55C244.138 511.55 245.503 511.13 246.6 510.29C247.696 509.45 248.245 508.342 248.245 506.965C248.245 505.588 247.696 504.492 246.6 503.675C245.503 502.858 244.138 502.45 242.505 502.45C240.848 502.45 239.471 502.858 238.375 503.675C237.278 504.492 236.73 505.588 236.73 506.965C236.73 508.342 237.278 509.45 238.375 510.29C239.471 511.13 240.848 511.55 242.505 511.55Z" fill="#DB7F20"/>
<path id="10" d="M233.566 310C233.333 310 233.135 309.93 232.971 309.79C232.831 309.627 232.761 309.428 232.761 309.195V289.595L226.951 294.075C226.788 294.215 226.613 294.285 226.426 294.285C226.216 294.285 226.018 294.168 225.831 293.935L224.921 292.78C224.805 292.617 224.746 292.453 224.746 292.29C224.746 292.01 224.863 291.788 225.096 291.625L232.726 285.745C232.983 285.582 233.286 285.5 233.636 285.5H235.421C235.655 285.5 235.841 285.582 235.981 285.745C236.145 285.885 236.226 286.072 236.226 286.305V309.195C236.226 309.428 236.145 309.627 235.981 309.79C235.841 309.93 235.655 310 235.421 310H233.566ZM249.972 310.35C246.962 310.35 244.757 309.475 243.357 307.725C241.957 305.975 241.21 303.677 241.117 300.83C241.094 300.2 241.082 299.185 241.082 297.785C241.082 296.338 241.094 295.288 241.117 294.635C241.187 291.835 241.934 289.56 243.357 287.81C244.78 286.037 246.985 285.15 249.972 285.15C252.982 285.15 255.199 286.037 256.622 287.81C258.045 289.56 258.792 291.835 258.862 294.635C258.909 295.942 258.932 296.992 258.932 297.785C258.932 298.555 258.909 299.57 258.862 300.83C258.769 303.677 258.022 305.975 256.622 307.725C255.222 309.475 253.005 310.35 249.972 310.35ZM249.972 307.34C251.722 307.34 253.04 306.757 253.927 305.59C254.837 304.423 255.315 302.778 255.362 300.655C255.409 299.302 255.432 298.322 255.432 297.715C255.432 297.062 255.409 296.105 255.362 294.845C255.315 292.745 254.849 291.1 253.962 289.91C253.075 288.72 251.745 288.125 249.972 288.125C248.222 288.125 246.892 288.72 245.982 289.91C245.095 291.1 244.629 292.745 244.582 294.845L244.547 297.715L244.582 300.655C244.629 302.778 245.095 304.423 245.982 305.59C246.892 306.757 248.222 307.34 249.972 307.34Z" fill="#DB7F20"/>
<path id="9" d="M205.365 413C205.125 413 204.925 412.92 204.765 412.76C204.631 412.573 204.565 412.36 204.565 412.12C204.565 411.933 204.618 411.76 204.725 411.6L210.845 403.08C210.205 403.24 209.485 403.32 208.685 403.32C206.791 403.293 205.111 402.853 203.645 402C202.205 401.147 201.098 400.013 200.325 398.6C199.551 397.187 199.165 395.68 199.165 394.08C199.165 392.48 199.538 390.96 200.285 389.52C201.058 388.053 202.205 386.867 203.725 385.96C205.245 385.053 207.085 384.6 209.245 384.6C211.405 384.6 213.245 385.04 214.765 385.92C216.311 386.8 217.471 387.96 218.245 389.4C219.018 390.84 219.405 392.373 219.405 394C219.405 395.44 219.151 396.72 218.645 397.84C218.138 398.933 217.431 400.133 216.525 401.44L208.805 412.2C208.618 412.44 208.431 412.64 208.245 412.8C208.085 412.933 207.845 413 207.525 413H205.365ZM209.245 400.08C210.365 400.08 211.391 399.84 212.325 399.36C213.285 398.853 214.045 398.147 214.605 397.24C215.165 396.307 215.445 395.24 215.445 394.04C215.445 392.84 215.165 391.787 214.605 390.88C214.045 389.947 213.285 389.24 212.325 388.76C211.391 388.253 210.365 388 209.245 388C208.125 388 207.098 388.253 206.165 388.76C205.231 389.24 204.485 389.947 203.925 390.88C203.391 391.787 203.125 392.84 203.125 394.04C203.125 395.24 203.391 396.307 203.925 397.24C204.485 398.147 205.231 398.853 206.165 399.36C207.098 399.84 208.125 400.08 209.245 400.08Z" fill="#1ABC9C"/>
<path id="11" d="M310.189 232C309.956 232 309.758 231.93 309.594 231.79C309.454 231.627 309.384 231.428 309.384 231.195V211.595L303.574 216.075C303.411 216.215 303.236 216.285 303.049 216.285C302.839 216.285 302.641 216.168 302.454 215.935L301.544 214.78C301.428 214.617 301.369 214.453 301.369 214.29C301.369 214.01 301.486 213.788 301.719 213.625L309.349 207.745C309.606 207.582 309.909 207.5 310.259 207.5H312.044C312.278 207.5 312.464 207.582 312.604 207.745C312.768 207.885 312.849 208.072 312.849 208.305V231.195C312.849 231.428 312.768 231.627 312.604 231.79C312.464 231.93 312.278 232 312.044 232H310.189ZM325.16 232C324.927 232 324.728 231.93 324.565 231.79C324.425 231.627 324.355 231.428 324.355 231.195V211.595L318.545 216.075C318.382 216.215 318.207 216.285 318.02 216.285C317.81 216.285 317.612 216.168 317.425 215.935L316.515 214.78C316.398 214.617 316.34 214.453 316.34 214.29C316.34 214.01 316.457 213.788 316.69 213.625L324.32 207.745C324.577 207.582 324.88 207.5 325.23 207.5H327.015C327.248 207.5 327.435 207.582 327.575 207.745C327.738 207.885 327.82 208.072 327.82 208.305V231.195C327.82 231.428 327.738 231.627 327.575 231.79C327.435 231.93 327.248 232 327.015 232H325.16Z" fill="#DB7F20"/>
</g>
<g id="hourHand">
<line id="Line 7" x1="416" y1="276" x2="416" y2="396" stroke="#828282" stroke-width="2"/>
<line id="Line 8" x1="424" y1="273.992" x2="424.946" y2="395.993" stroke="#828282" stroke-width="2"/>
<line id="Line 9" x1="415.09" y1="275.586" x2="420.09" y2="264.586" stroke="#828282" stroke-width="2"/>
<line id="Line 10" x1="419.91" y1="264.586" x2="424.91" y2="275.586" stroke="#828282" stroke-width="2"/>
</g>
<circle id="centerCircle" cx="420" cy="396" r="13" fill="#292F34" stroke="#828282" stroke-width="4"/>
<g id="groupLines">
<path id="Vector" d="M559.499 204.916L553.188 213.102M653.956 422.762L643.689 421.566M325.495 180.178L329.632 189.651M449.368 158.734L447.39 168.88M186.037 369.513L196.232 371.215M230.727 256.491L239.048 262.969M205.29 492.237L214.802 488.191M393.776 634.748L395.586 624.571M516.459 614.123L512.5 604.575M608.851 538.5L600.666 532.188M280.197 587.95L286.528 579.779M636.109 301.383L626.582 305.391M579.036 221.005L572.114 228.681M650.221 447.794L640.077 445.812M349.003 170.8L352.398 180.563M474.041 164.372L471.288 174.336M191.005 344.696L201.04 347.178M247.652 237.287L255.436 244.366M196.137 468.641L205.932 465.339M369.013 629.518L371.601 619.511M492.78 623.06L489.568 613.235M592.76 558.035L585.085 551.112M260.698 571.814L267.639 564.154M645.168 325.015L635.36 328.278M595.799 238.134L587.981 244.897M644.165 470.984L634.343 467.763M372.087 164.356L374.251 174.464M496.699 172.184L492.737 181.731M198.201 321.835L207.852 325.537M265.597 220.88L272.424 228.835M189.914 445.496L200.042 443.429M346.229 622.082L350.033 612.471M469.58 629.072L467.606 618.926M575.629 574.796L568.867 566.978M243.978 554.643L251.812 547.9M651.3 348.185L641.164 350.211M610.799 256.134L602.981 262.897M636.456 493.11L626.634 489.889M395.086 159.875L397.249 169.983M518.171 181.563L514.208 191.11M206.995 300.117L216.646 303.82M284.413 206.251L291.24 214.206M185.653 422.456L195.781 420.389M324.605 613.059L328.409 603.448M446.502 633.122L444.528 622.976M557.627 589.794L550.865 581.976M229.021 536.607L236.855 529.863M655.469 402.241L645.333 404.268" stroke="#DB7F20" stroke-width="3"/>
</g>
<g id="numberLines">
<line id="Line 13" x1="644" y1="397.5" x2="663" y2="397.5" stroke="#1ABC9C" stroke-width="5"/>
<line id="Line 15" x1="176" y1="397.5" x2="195" y2="397.5" stroke="#1ABC9C" stroke-width="5"/>
<line id="Line 14" x1="421.5" y1="643.487" x2="421.5" y2="623" stroke="#1ABC9C" stroke-width="5"/>
<line id="Line 24" x1="420.5" y1="168.487" x2="420.5" y2="148" stroke="#1ABC9C" stroke-width="5"/>
<line id="Line 16" x1="626.497" y1="278.312" x2="614.727" y2="284.829" stroke="#DB7F20" stroke-width="3"/>
<line id="Line 17" x1="224.497" y1="511.312" x2="212.727" y2="517.829" stroke="#DB7F20" stroke-width="3"/>
<line id="Line 18" x1="223.663" y1="283.34" x2="212.212" y2="276.277" stroke="#DB7F20" stroke-width="3"/>
<line id="Line 19" x1="626.663" y1="516.34" x2="615.212" y2="509.277" stroke="#DB7F20" stroke-width="3"/>
<line id="Line 20" x1="538.117" y1="600.912" x2="531.516" y2="589.189" stroke="#DB7F20" stroke-width="3"/>
<line id="Line 21" x1="307.293" y1="201.459" x2="300.693" y2="189.736" stroke="#DB7F20" stroke-width="3"/>
<line id="Line 22" x1="301.689" y1="604.024" x2="308.235" y2="592.27" stroke="#DB7F20" stroke-width="3"/>
<line id="Line 23" x1="534.689" y1="201.024" x2="541.235" y2="189.27" stroke="#DB7F20" stroke-width="3"/>
</g>
<g id="minuteHand">
<line id="Line 11" x1="419" y1="395.5" x2="588" y2="395.5" stroke="#828282" stroke-width="3"/>
<circle id="Ellipse 3" cx="420" cy="396" r="5" fill="#828282"/>
</g>
<g id="secondHand">
<line id="Line 12" x1="420" y1="399.995" x2="421" y2="601.995" stroke="#1ABC9C" stroke-width="2"/>
<circle id="Ellipse 4" cx="420" cy="396" r="4" fill="#1ABC9C"/>
</g>
</g>
</svg>
